<?xml version='1.0' encoding='UTF-8' standalone='no'?>
<svg viewBox="0 0 11890 8410" width="1189mm" xmlns:svg="http://www.w3.org/2000/svg" xmlns="http://www.w3.org/2000/svg" xmlns:dc="http://purl.org/dc/elements/1.1/" height="841mm" version="1.2" xmlns:cc="http://creativecommons.org/ns#" xmlns:rdf="http://www.w3.org/1999/02/22-rdf-syntax-ns#" xmlns:xlink="http://www.w3.org/1999/xlink" xmlns:freecad="http://www.freecadweb.org/wiki/index.php?title=Svg_Namespace" xmlns:inkscape="http://www.inkscape.org/namespaces/inkscape" baseProfile="tiny" xmlns:sodipodi="http://sodipodi.sourceforge.net/DTD/sodipodi-0.dtd">
 <title>FreeCAD SVG Export</title>
 <desc>Drawing page: Page exported from FreeCAD document: ComputerPlatform</desc>
 <defs/>
 <g id="Page" inkscape:label="TechDraw" inkscape:groupmode="layer">
  <g id="DrawingContent" stroke-width="1" fill="none" stroke-linejoin="bevel" fill-rule="evenodd" stroke="black" stroke-linecap="square">
   <g font-style="normal" fill-opacity="1" fill="#ffffff" transform="matrix(1,0,0,1,2080.05,4610.14)" font-family="MS Shell Dlg 2" stroke="none" font-size="29.1042" font-weight="400">
    <path d="M-1119.87,78.4298 L-1951.39,-884.809 C-1982.75,-921.131 -2000,-967.516 -2000,-1015.5 L-2000,-3665.5 C-2000,-3682.07 -1986.57,-3695.5 -1970,-3695.5 L1970,-3695.5 C1986.57,-3695.5 2000,-3682.07 2000,-3665.5 L2000,-1015.5 C2000,-967.516 1982.75,-921.131 1951.39,-884.809 L1119.87,78.4298 C1050.58,158.699 1008.6,258.92 1000,364.612 L739.539,3565.96 C733.626,3638.64 672.918,3694.61 600,3694.61 L-600,3694.61 C-672.918,3694.61 -733.626,3638.64 -739.539,3565.96 L-1000,364.612 C-1008.6,258.92 -1050.58,158.699 -1119.87,78.4298 " vector-effect="non-scaling-stroke" fill-rule="evenodd"/>
   </g>
   <g font-style="normal" fill-opacity="1" fill="#ffffff" transform="matrix(1,0,0,1,2080.05,4610.14)" font-family="MS Shell Dlg 2" stroke="none" font-size="29.1042" font-weight="400">
    <path d="M250,-135.388 C250,2.68273 138.071,114.612 0,114.612 C-138.071,114.612 -250,2.68273 -250,-135.388 C-250,-273.46 -138.071,-385.388 0,-385.388 C138.071,-385.388 250,-273.46 250,-135.388 " vector-effect="non-scaling-stroke" fill-rule="evenodd"/>
   </g>
   <g font-style="normal" fill-opacity="1" fill="#ffffff" transform="matrix(1,0,0,1,2080.05,4610.14)" font-family="MS Shell Dlg 2" stroke="none" font-size="29.1042" font-weight="400">
    <path d="M100,-635.388 C100,-580.16 55.2285,-535.388 0,-535.388 C-55.2285,-535.388 -100,-580.16 -100,-635.388 C-100,-690.617 -55.2285,-735.388 0,-735.388 C55.2285,-735.388 100,-690.617 100,-635.388 " vector-effect="non-scaling-stroke" fill-rule="evenodd"/>
   </g>
   <g font-style="normal" fill-opacity="1" fill="#ffffff" transform="matrix(1,0,0,1,2080.05,4610.14)" font-family="MS Shell Dlg 2" stroke="none" font-size="29.1042" font-weight="400">
    <path d="M-458.55,-645.438 C-458.55,-616.996 -481.607,-593.938 -510.05,-593.938 C-538.493,-593.938 -561.55,-616.996 -561.55,-645.438 C-561.55,-673.881 -538.493,-696.938 -510.05,-696.938 C-481.607,-696.938 -458.55,-673.881 -458.55,-645.438 " vector-effect="non-scaling-stroke" fill-rule="evenodd"/>
   </g>
   <g font-style="normal" fill-opacity="1" fill="#ffffff" transform="matrix(1,0,0,1,2080.05,4610.14)" font-family="MS Shell Dlg 2" stroke="none" font-size="29.1042" font-weight="400">
    <path d="M561.55,374.662 C561.55,403.104 538.493,426.162 510.05,426.162 C481.607,426.162 458.55,403.104 458.55,374.662 C458.55,346.219 481.607,323.162 510.05,323.162 C538.493,323.162 561.55,346.219 561.55,374.662 " vector-effect="non-scaling-stroke" fill-rule="evenodd"/>
   </g>
   <g font-style="normal" fill-opacity="1" fill="#ffffff" transform="matrix(1,0,0,1,2080.05,4610.14)" font-family="MS Shell Dlg 2" stroke="none" font-size="29.1042" font-weight="400">
    <path d="M-458.55,374.662 C-458.55,403.104 -481.607,426.162 -510.05,426.162 C-538.493,426.162 -561.55,403.104 -561.55,374.662 C-561.55,346.219 -538.493,323.162 -510.05,323.162 C-481.607,323.162 -458.55,346.219 -458.55,374.662 " vector-effect="non-scaling-stroke" fill-rule="evenodd"/>
   </g>
   <g font-style="normal" fill-opacity="1" fill="#ffffff" transform="matrix(1,0,0,1,2080.05,4610.14)" font-family="MS Shell Dlg 2" stroke="none" font-size="29.1042" font-weight="400">
    <path d="M561.55,-645.438 C561.55,-616.996 538.493,-593.938 510.05,-593.938 C481.607,-593.938 458.55,-616.996 458.55,-645.438 C458.55,-673.881 481.607,-696.938 510.05,-696.938 C538.493,-696.938 561.55,-673.881 561.55,-645.438 " vector-effect="non-scaling-stroke" fill-rule="evenodd"/>
   </g>
   <g font-style="normal" fill-opacity="1" fill="#ffffff" transform="matrix(1,0,0,1,2080.05,4610.14)" font-family="MS Shell Dlg 2" stroke="none" font-size="29.1042" font-weight="400">
    <path d="M456,3364.61 C456,3379.8 443.688,3392.11 428.5,3392.11 C413.312,3392.11 401,3379.8 401,3364.61 C401,3349.42 413.312,3337.11 428.5,3337.11 C443.688,3337.11 456,3349.42 456,3364.61 " vector-effect="non-scaling-stroke" fill-rule="evenodd"/>
   </g>
   <g font-style="normal" fill-opacity="1" fill="#ffffff" transform="matrix(1,0,0,1,2080.05,4610.14)" font-family="MS Shell Dlg 2" stroke="none" font-size="29.1042" font-weight="400">
    <path d="M59,-1635.39 C59,-1620.2 46.6878,-1607.89 31.5,-1607.89 C16.3122,-1607.89 4,-1620.2 4,-1635.39 C4,-1650.58 16.3122,-1662.89 31.5,-1662.89 C46.6878,-1662.89 59,-1650.58 59,-1635.39 " vector-effect="non-scaling-stroke" fill-rule="evenodd"/>
   </g>
   <g font-style="normal" fill-opacity="1" fill="#ffffff" transform="matrix(1,0,0,1,2080.05,4610.14)" font-family="MS Shell Dlg 2" stroke="none" font-size="29.1042" font-weight="400">
    <path d="M59,3364.61 C59,3379.8 46.6878,3392.11 31.5,3392.11 C16.3122,3392.11 4,3379.8 4,3364.61 C4,3349.42 16.3122,3337.11 31.5,3337.11 C46.6878,3337.11 59,3349.42 59,3364.61 " vector-effect="non-scaling-stroke" fill-rule="evenodd"/>
   </g>
   <g font-style="normal" fill-opacity="1" fill="#ffffff" transform="matrix(1,0,0,1,2080.05,4610.14)" font-family="MS Shell Dlg 2" stroke="none" font-size="29.1042" font-weight="400">
    <path d="M456,-1635.39 C456,-1620.2 443.688,-1607.89 428.5,-1607.89 C413.312,-1607.89 401,-1620.2 401,-1635.39 C401,-1650.58 413.312,-1662.89 428.5,-1662.89 C443.688,-1662.89 456,-1650.58 456,-1635.39 " vector-effect="non-scaling-stroke" fill-rule="evenodd"/>
   </g>
   <g font-style="normal" fill-opacity="1" fill="#ffffff" transform="matrix(1,0,0,1,2080.05,4610.14)" font-family="MS Shell Dlg 2" stroke="none" font-size="29.1042" font-weight="400">
    <path d="M-337.5,714.612 C-337.5,727.038 -347.574,737.112 -360,737.112 C-372.426,737.112 -382.5,727.038 -382.5,714.612 C-382.5,702.185 -372.426,692.112 -360,692.112 C-347.574,692.112 -337.5,702.185 -337.5,714.612 " vector-effect="non-scaling-stroke" fill-rule="evenodd"/>
   </g>
   <g font-style="normal" fill-opacity="1" fill="#ffffff" transform="matrix(1,0,0,1,2080.05,4610.14)" font-family="MS Shell Dlg 2" stroke="none" font-size="29.1042" font-weight="400">
    <path d="M-337.5,1014.61 C-337.5,1027.04 -347.574,1037.11 -360,1037.11 C-372.426,1037.11 -382.5,1027.04 -382.5,1014.61 C-382.5,1002.19 -372.426,992.112 -360,992.112 C-347.574,992.112 -337.5,1002.19 -337.5,1014.61 " vector-effect="non-scaling-stroke" fill-rule="evenodd"/>
   </g>
   <g font-style="normal" stroke-width="7" fill="none" stroke-linejoin="bevel" transform="matrix(1,0,0,1,2080.05,4610.14)" font-family="MS Shell Dlg 2" stroke="#000000" font-size="29.1042" stroke-linecap="round" stroke-opacity="1" font-weight="400">
    <path d="M-1119.87,78.4298 L-1951.39,-884.809" vector-effect="none" fill-rule="evenodd"/>
   </g>
   <g font-style="normal" stroke-width="7" fill="none" stroke-linejoin="bevel" transform="matrix(1,0,0,1,2080.05,4610.14)" font-family="MS Shell Dlg 2" stroke="#000000" font-size="29.1042" stroke-linecap="round" stroke-opacity="1" font-weight="400">
    <path d="M-1119.87,78.4298 C-1050.58,158.699 -1008.6,258.92 -1000,364.612 " vector-effect="none" fill-rule="evenodd"/>
   </g>
   <g font-style="normal" stroke-width="7" fill="none" stroke-linejoin="bevel" transform="matrix(1,0,0,1,2080.05,4610.14)" font-family="MS Shell Dlg 2" stroke="#000000" font-size="29.1042" stroke-linecap="round" stroke-opacity="1" font-weight="400">
    <path d="M-1951.39,-884.809 C-1982.75,-921.131 -2000,-967.516 -2000,-1015.5 " vector-effect="none" fill-rule="evenodd"/>
   </g>
   <g font-style="normal" stroke-width="7" fill="none" stroke-linejoin="bevel" transform="matrix(1,0,0,1,2080.05,4610.14)" font-family="MS Shell Dlg 2" stroke="#000000" font-size="29.1042" stroke-linecap="round" stroke-opacity="1" font-weight="400">
    <path d="M-739.539,3565.96 L-1000,364.612" vector-effect="none" fill-rule="evenodd"/>
   </g>
   <g font-style="normal" stroke-width="7" fill="none" stroke-linejoin="bevel" transform="matrix(1,0,0,1,2080.05,4610.14)" font-family="MS Shell Dlg 2" stroke="#000000" font-size="29.1042" stroke-linecap="round" stroke-opacity="1" font-weight="400">
    <path d="M-2000,-1015.5 L-2000,-3665.5" vector-effect="none" fill-rule="evenodd"/>
   </g>
   <g font-style="normal" stroke-width="7" fill="none" stroke-linejoin="bevel" transform="matrix(1,0,0,1,2080.05,4610.14)" font-family="MS Shell Dlg 2" stroke="#000000" font-size="29.1042" stroke-linecap="round" stroke-opacity="1" font-weight="400">
    <path d="M-600,3694.61 C-672.918,3694.61 -733.626,3638.64 -739.539,3565.96 " vector-effect="none" fill-rule="evenodd"/>
   </g>
   <g font-style="normal" stroke-width="7" fill="none" stroke-linejoin="bevel" transform="matrix(1,0,0,1,2080.05,4610.14)" font-family="MS Shell Dlg 2" stroke="#000000" font-size="29.1042" stroke-linecap="round" stroke-opacity="1" font-weight="400">
    <path d="M-2000,-3665.5 C-2000,-3682.07 -1986.57,-3695.5 -1970,-3695.5 " vector-effect="none" fill-rule="evenodd"/>
   </g>
   <g font-style="normal" stroke-width="7" fill="none" stroke-linejoin="bevel" transform="matrix(1,0,0,1,2080.05,4610.14)" font-family="MS Shell Dlg 2" stroke="#000000" font-size="29.1042" stroke-linecap="round" stroke-opacity="1" font-weight="400">
    <path d="M-600,3694.61 L600,3694.61" vector-effect="none" fill-rule="evenodd"/>
   </g>
   <g font-style="normal" stroke-width="7" fill="none" stroke-linejoin="bevel" transform="matrix(1,0,0,1,2080.05,4610.14)" font-family="MS Shell Dlg 2" stroke="#000000" font-size="29.1042" stroke-linecap="round" stroke-opacity="1" font-weight="400">
    <path d="M-1970,-3695.5 L1970,-3695.5" vector-effect="none" fill-rule="evenodd"/>
   </g>
   <g font-style="normal" stroke-width="7" fill="none" stroke-linejoin="bevel" transform="matrix(1,0,0,1,2080.05,4610.14)" font-family="MS Shell Dlg 2" stroke="#000000" font-size="29.1042" stroke-linecap="round" stroke-opacity="1" font-weight="400">
    <path d="M739.539,3565.96 C733.626,3638.64 672.918,3694.61 600,3694.61 " vector-effect="none" fill-rule="evenodd"/>
   </g>
   <g font-style="normal" stroke-width="7" fill="none" stroke-linejoin="bevel" transform="matrix(1,0,0,1,2080.05,4610.14)" font-family="MS Shell Dlg 2" stroke="#000000" font-size="29.1042" stroke-linecap="round" stroke-opacity="1" font-weight="400">
    <path d="M1970,-3695.5 C1986.57,-3695.5 2000,-3682.07 2000,-3665.5 " vector-effect="none" fill-rule="evenodd"/>
   </g>
   <g font-style="normal" stroke-width="7" fill="none" stroke-linejoin="bevel" transform="matrix(1,0,0,1,2080.05,4610.14)" font-family="MS Shell Dlg 2" stroke="#000000" font-size="29.1042" stroke-linecap="round" stroke-opacity="1" font-weight="400">
    <path d="M739.539,3565.96 L1000,364.612" vector-effect="none" fill-rule="evenodd"/>
   </g>
   <g font-style="normal" stroke-width="7" fill="none" stroke-linejoin="bevel" transform="matrix(1,0,0,1,2080.05,4610.14)" font-family="MS Shell Dlg 2" stroke="#000000" font-size="29.1042" stroke-linecap="round" stroke-opacity="1" font-weight="400">
    <path d="M2000,-3665.5 L2000,-1015.5" vector-effect="none" fill-rule="evenodd"/>
   </g>
   <g font-style="normal" stroke-width="7" fill="none" stroke-linejoin="bevel" transform="matrix(1,0,0,1,2080.05,4610.14)" font-family="MS Shell Dlg 2" stroke="#000000" font-size="29.1042" stroke-linecap="round" stroke-opacity="1" font-weight="400">
    <path d="M1000,364.612 C1008.6,258.92 1050.58,158.699 1119.87,78.4298 " vector-effect="none" fill-rule="evenodd"/>
   </g>
   <g font-style="normal" stroke-width="7" fill="none" stroke-linejoin="bevel" transform="matrix(1,0,0,1,2080.05,4610.14)" font-family="MS Shell Dlg 2" stroke="#000000" font-size="29.1042" stroke-linecap="round" stroke-opacity="1" font-weight="400">
    <path d="M2000,-1015.5 C2000,-967.516 1982.75,-921.131 1951.39,-884.809 " vector-effect="none" fill-rule="evenodd"/>
   </g>
   <g font-style="normal" stroke-width="7" fill="none" stroke-linejoin="bevel" transform="matrix(1,0,0,1,2080.05,4610.14)" font-family="MS Shell Dlg 2" stroke="#000000" font-size="29.1042" stroke-linecap="round" stroke-opacity="1" font-weight="400">
    <path d="M1119.87,78.4298 L1951.39,-884.809" vector-effect="none" fill-rule="evenodd"/>
   </g>
   <g font-style="normal" stroke-width="7" fill="none" stroke-linejoin="bevel" transform="matrix(1,0,0,1,2080.05,4610.14)" font-family="MS Shell Dlg 2" stroke="#000000" font-size="29.1042" stroke-linecap="round" stroke-opacity="1" font-weight="400">
    <path d="M-458.55,-645.438 C-458.55,-616.996 -481.607,-593.938 -510.05,-593.938 C-538.493,-593.938 -561.55,-616.996 -561.55,-645.438 C-561.55,-673.881 -538.493,-696.938 -510.05,-696.938 C-481.607,-696.938 -458.55,-673.881 -458.55,-645.438 " vector-effect="none" fill-rule="evenodd"/>
   </g>
   <g font-style="normal" stroke-width="7" fill="none" stroke-linejoin="bevel" transform="matrix(1,0,0,1,2080.05,4610.14)" font-family="MS Shell Dlg 2" stroke="#000000" font-size="29.1042" stroke-linecap="round" stroke-opacity="1" font-weight="400">
    <path d="M-458.55,374.662 C-458.55,403.104 -481.607,426.162 -510.05,426.162 C-538.493,426.162 -561.55,403.104 -561.55,374.662 C-561.55,346.219 -538.493,323.162 -510.05,323.162 C-481.607,323.162 -458.55,346.219 -458.55,374.662 " vector-effect="none" fill-rule="evenodd"/>
   </g>
   <g font-style="normal" stroke-width="7" fill="none" stroke-linejoin="bevel" transform="matrix(1,0,0,1,2080.05,4610.14)" font-family="MS Shell Dlg 2" stroke="#000000" font-size="29.1042" stroke-linecap="round" stroke-opacity="1" font-weight="400">
    <path d="M-337.5,714.612 C-337.5,727.038 -347.574,737.112 -360,737.112 C-372.426,737.112 -382.5,727.038 -382.5,714.612 C-382.5,702.185 -372.426,692.112 -360,692.112 C-347.574,692.112 -337.5,702.185 -337.5,714.612 " vector-effect="none" fill-rule="evenodd"/>
   </g>
   <g font-style="normal" stroke-width="7" fill="none" stroke-linejoin="bevel" transform="matrix(1,0,0,1,2080.05,4610.14)" font-family="MS Shell Dlg 2" stroke="#000000" font-size="29.1042" stroke-linecap="round" stroke-opacity="1" font-weight="400">
    <path d="M59,-1635.39 C59,-1620.2 46.6878,-1607.89 31.5,-1607.89 C16.3122,-1607.89 4,-1620.2 4,-1635.39 C4,-1650.58 16.3122,-1662.89 31.5,-1662.89 C46.6878,-1662.89 59,-1650.58 59,-1635.39 " vector-effect="none" fill-rule="evenodd"/>
   </g>
   <g font-style="normal" stroke-width="7" fill="none" stroke-linejoin="bevel" transform="matrix(1,0,0,1,2080.05,4610.14)" font-family="MS Shell Dlg 2" stroke="#000000" font-size="29.1042" stroke-linecap="round" stroke-opacity="1" font-weight="400">
    <path d="M100,-635.388 C100,-580.16 55.2285,-535.388 0,-535.388 C-55.2285,-535.388 -100,-580.16 -100,-635.388 C-100,-690.617 -55.2285,-735.388 0,-735.388 C55.2285,-735.388 100,-690.617 100,-635.388 " vector-effect="none" fill-rule="evenodd"/>
   </g>
   <g font-style="normal" stroke-width="7" fill="none" stroke-linejoin="bevel" transform="matrix(1,0,0,1,2080.05,4610.14)" font-family="MS Shell Dlg 2" stroke="#000000" font-size="29.1042" stroke-linecap="round" stroke-opacity="1" font-weight="400">
    <path d="M456,-1635.39 C456,-1620.2 443.688,-1607.89 428.5,-1607.89 C413.312,-1607.89 401,-1620.2 401,-1635.39 C401,-1650.58 413.312,-1662.89 428.5,-1662.89 C443.688,-1662.89 456,-1650.58 456,-1635.39 " vector-effect="none" fill-rule="evenodd"/>
   </g>
   <g font-style="normal" stroke-width="7" fill="none" stroke-linejoin="bevel" transform="matrix(1,0,0,1,2080.05,4610.14)" font-family="MS Shell Dlg 2" stroke="#000000" font-size="29.1042" stroke-linecap="round" stroke-opacity="1" font-weight="400">
    <path d="M561.55,-645.438 C561.55,-616.996 538.493,-593.938 510.05,-593.938 C481.607,-593.938 458.55,-616.996 458.55,-645.438 C458.55,-673.881 481.607,-696.938 510.05,-696.938 C538.493,-696.938 561.55,-673.881 561.55,-645.438 " vector-effect="none" fill-rule="evenodd"/>
   </g>
   <g font-style="normal" stroke-width="7" fill="none" stroke-linejoin="bevel" transform="matrix(1,0,0,1,2080.05,4610.14)" font-family="MS Shell Dlg 2" stroke="#000000" font-size="29.1042" stroke-linecap="round" stroke-opacity="1" font-weight="400">
    <path d="M250,-135.388 C250,2.68273 138.071,114.612 0,114.612 C-138.071,114.612 -250,2.68273 -250,-135.388 C-250,-273.46 -138.071,-385.388 0,-385.388 C138.071,-385.388 250,-273.46 250,-135.388 " vector-effect="none" fill-rule="evenodd"/>
   </g>
   <g font-style="normal" stroke-width="7" fill="none" stroke-linejoin="bevel" transform="matrix(1,0,0,1,2080.05,4610.14)" font-family="MS Shell Dlg 2" stroke="#000000" font-size="29.1042" stroke-linecap="round" stroke-opacity="1" font-weight="400">
    <path d="M561.55,374.662 C561.55,403.104 538.493,426.162 510.05,426.162 C481.607,426.162 458.55,403.104 458.55,374.662 C458.55,346.219 481.607,323.162 510.05,323.162 C538.493,323.162 561.55,346.219 561.55,374.662 " vector-effect="none" fill-rule="evenodd"/>
   </g>
   <g font-style="normal" stroke-width="7" fill="none" stroke-linejoin="bevel" transform="matrix(1,0,0,1,2080.05,4610.14)" font-family="MS Shell Dlg 2" stroke="#000000" font-size="29.1042" stroke-linecap="round" stroke-opacity="1" font-weight="400">
    <path d="M-337.5,1014.61 C-337.5,1027.04 -347.574,1037.11 -360,1037.11 C-372.426,1037.11 -382.5,1027.04 -382.5,1014.61 C-382.5,1002.19 -372.426,992.112 -360,992.112 C-347.574,992.112 -337.5,1002.19 -337.5,1014.61 " vector-effect="none" fill-rule="evenodd"/>
   </g>
   <g font-style="normal" stroke-width="7" fill="none" stroke-linejoin="bevel" transform="matrix(1,0,0,1,2080.05,4610.14)" font-family="MS Shell Dlg 2" stroke="#000000" font-size="29.1042" stroke-linecap="round" stroke-opacity="1" font-weight="400">
    <path d="M59,3364.61 C59,3379.8 46.6878,3392.11 31.5,3392.11 C16.3122,3392.11 4,3379.8 4,3364.61 C4,3349.42 16.3122,3337.11 31.5,3337.11 C46.6878,3337.11 59,3349.42 59,3364.61 " vector-effect="none" fill-rule="evenodd"/>
   </g>
   <g font-style="normal" stroke-width="7" fill="none" stroke-linejoin="bevel" transform="matrix(1,0,0,1,2080.05,4610.14)" font-family="MS Shell Dlg 2" stroke="#000000" font-size="29.1042" stroke-linecap="round" stroke-opacity="1" font-weight="400">
    <path d="M456,3364.61 C456,3379.8 443.688,3392.11 428.5,3392.11 C413.312,3392.11 401,3379.8 401,3364.61 C401,3349.42 413.312,3337.11 428.5,3337.11 C443.688,3337.11 456,3349.42 456,3364.61 " vector-effect="none" fill-rule="evenodd"/>
   </g>
  </g>
 </g>
</svg>
