999
FreeCAD v0.20 29177 +426 (Git)
  0
SECTION
  2
HEADER
  9
$ACADVER
  1
AC1014
  9
$ACADMAINTVER
 70
     9
  9
$DWGCODEPAGE
  3
ANSI_1252
  9
$TEXTSTYLE
  7
STANDARD
  9
$DIMSTYLE
  2
STANDARD
  9
$DIMTXSTY
  7
STANDARD
  9
$CMLSTYLE
  2
STANDARD
  9
$LUNITS
 70
2
  9
$INSUNITS
 70
4
  9
$PEXTMAX
 10
50
 20
50
 30
50
  9
$PEXTMIN
 10
0
 20
0
 30
0
  9
$HANDSEED
  5
FFFF
  0
ENDSEC
  0
SECTION
  2
CLASSES
  0
CLASS
  1
ACDBDICTIONARYWDFLT
  2
AcDbDictionaryWithDefault
  3
ObjectDBX Classes
 90
        0
280
     0
281
     0
  0
CLASS
  1
XRECORD
  2
AcDbXrecord
  3
ObjectDBX Classes
 90
        0
280
     0
281
     0
  0
CLASS
  1
LWPOLYLINE
  2
AcDbPolyline
  3
ObjectDBX Classes
 90
        0
280
     0
281
     1
  0
ENDSEC
  0
SECTION
  2
TABLES
  0
TABLE
  2
VPORT
  5
20
330
0
100
AcDbSymbolTable
 70
     1
  0
VPORT
  5
21
330
20
100
AcDbSymbolTableRecord
100
AcDbViewportTableRecord
  2
*ACTIVE
 70
     0
  0
ENDTAB
  0
TABLE
  2
LTYPE
  5
22
330
0
100
AcDbSymbolTable
 70
     1
  0
LTYPE
  5
23
330
21
100
AcDbSymbolTableRecord
100
AcDbLinetypeTableRecord
  2
BYBLOCK
 70
     0
  3

 72
    65
 73
     0
 40
0.0
  0
LTYPE
  5
24
330
21
100
AcDbSymbolTableRecord
100
AcDbLinetypeTableRecord
  2
BYLAYER
 70
     0
  3

 72
    65
 73
     0
 40
0.0
  0
LTYPE
  5
25
330
21
100
AcDbSymbolTableRecord
100
AcDbLinetypeTableRecord
  2
CONTINUOUS
 70
     0
  3
Solid line
 72
    65
 73
     0
 40
0.0
  0
ENDTAB
  0
TABLE
  2
LAYER
  5
A56
330
0
100
AcDbSymbolTable
 70
80
  0
LAYER
  5
A57
330
A56
100
AcDbSymbolTableRecord
100
AcDbLayerTableRecord
  2
0
 70
   0
 62
   7
  6
CONTINUOUS
  0
LAYER
  5
A58
330
A56
100
AcDbSymbolTableRecord
100
AcDbLayerTableRecord
  2
none
 70
    0
 62
    7
  6
CONTINUOUS
  0
LAYER
  5
A59
330
A56
100
AcDbSymbolTableRecord
100
AcDbLayerTableRecord
  2
Shape
 70
    0
 62
    7
  6
CONTINUOUS
  0
LAYER
  5
A5A
330
A56
100
AcDbSymbolTableRecord
100
AcDbLayerTableRecord
  2
Shape001
 70
    0
 62
    7
  6
CONTINUOUS
  0
LAYER
  5
A5B
330
A56
100
AcDbSymbolTableRecord
100
AcDbLayerTableRecord
  2
Shape002
 70
    0
 62
    7
  6
CONTINUOUS
  0
LAYER
  5
A5C
330
A56
100
AcDbSymbolTableRecord
100
AcDbLayerTableRecord
  2
Shape004
 70
    0
 62
    7
  6
CONTINUOUS
  0
LAYER
  5
A5D
330
A56
100
AcDbSymbolTableRecord
100
AcDbLayerTableRecord
  2
Shape005
 70
    0
 62
    7
  6
CONTINUOUS
  0
LAYER
  5
A5E
330
A56
100
AcDbSymbolTableRecord
100
AcDbLayerTableRecord
  2
Shape006
 70
    0
 62
    7
  6
CONTINUOUS
  0
LAYER
  5
A5F
330
A56
100
AcDbSymbolTableRecord
100
AcDbLayerTableRecord
  2
Shape008
 70
    0
 62
    7
  6
CONTINUOUS
  0
LAYER
  5
A60
330
A56
100
AcDbSymbolTableRecord
100
AcDbLayerTableRecord
  2
Shape009
 70
    0
 62
    7
  6
CONTINUOUS
  0
LAYER
  5
A61
330
A56
100
AcDbSymbolTableRecord
100
AcDbLayerTableRecord
  2
Shape010
 70
    0
 62
    7
  6
CONTINUOUS
  0
LAYER
  5
A62
330
A56
100
AcDbSymbolTableRecord
100
AcDbLayerTableRecord
  2
Shape011
 70
    0
 62
    7
  6
CONTINUOUS
  0
LAYER
  5
A63
330
A56
100
AcDbSymbolTableRecord
100
AcDbLayerTableRecord
  2
Shape012
 70
    0
 62
    7
  6
CONTINUOUS
  0
LAYER
  5
A64
330
A56
100
AcDbSymbolTableRecord
100
AcDbLayerTableRecord
  2
Shape013
 70
    0
 62
    7
  6
CONTINUOUS
  0
LAYER
  5
A65
330
A56
100
AcDbSymbolTableRecord
100
AcDbLayerTableRecord
  2
Shape014
 70
    0
 62
    7
  6
CONTINUOUS
  0
LAYER
  5
A66
330
A56
100
AcDbSymbolTableRecord
100
AcDbLayerTableRecord
  2
Shape015
 70
    0
 62
    7
  6
CONTINUOUS
  0
LAYER
  5
A67
330
A56
100
AcDbSymbolTableRecord
100
AcDbLayerTableRecord
  2
Shape016
 70
    0
 62
    7
  6
CONTINUOUS
  0
LAYER
  5
A68
330
A56
100
AcDbSymbolTableRecord
100
AcDbLayerTableRecord
  2
Shape017
 70
    0
 62
    7
  6
CONTINUOUS
  0
LAYER
  5
A69
330
A56
100
AcDbSymbolTableRecord
100
AcDbLayerTableRecord
  2
Shape018
 70
    0
 62
    7
  6
CONTINUOUS
  0
LAYER
  5
A6A
330
A56
100
AcDbSymbolTableRecord
100
AcDbLayerTableRecord
  2
Shape019
 70
    0
 62
    7
  6
CONTINUOUS
  0
LAYER
  5
A6B
330
A56
100
AcDbSymbolTableRecord
100
AcDbLayerTableRecord
  2
Shape020
 70
    0
 62
    7
  6
CONTINUOUS
  0
LAYER
  5
A6C
330
A56
100
AcDbSymbolTableRecord
100
AcDbLayerTableRecord
  2
Shape021
 70
    0
 62
    7
  6
CONTINUOUS
  0
LAYER
  5
A6D
330
A56
100
AcDbSymbolTableRecord
100
AcDbLayerTableRecord
  2
Shape022
 70
    0
 62
    7
  6
CONTINUOUS
  0
LAYER
  5
A6E
330
A56
100
AcDbSymbolTableRecord
100
AcDbLayerTableRecord
  2
Shape023
 70
    0
 62
    7
  6
CONTINUOUS
  0
LAYER
  5
A6F
330
A56
100
AcDbSymbolTableRecord
100
AcDbLayerTableRecord
  2
Shape024
 70
    0
 62
    7
  6
CONTINUOUS
  0
LAYER
  5
A70
330
A56
100
AcDbSymbolTableRecord
100
AcDbLayerTableRecord
  2
Shape025
 70
    0
 62
    7
  6
CONTINUOUS
  0
LAYER
  5
A71
330
A56
100
AcDbSymbolTableRecord
100
AcDbLayerTableRecord
  2
Shape026
 70
    0
 62
    7
  6
CONTINUOUS
  0
LAYER
  5
A72
330
A56
100
AcDbSymbolTableRecord
100
AcDbLayerTableRecord
  2
Shape027
 70
    0
 62
    7
  6
CONTINUOUS
  0
LAYER
  5
A73
330
A56
100
AcDbSymbolTableRecord
100
AcDbLayerTableRecord
  2
Shape028
 70
    0
 62
    7
  6
CONTINUOUS
  0
LAYER
  5
A74
330
A56
100
AcDbSymbolTableRecord
100
AcDbLayerTableRecord
  2
Shape029
 70
    0
 62
    7
  6
CONTINUOUS
  0
LAYER
  5
A75
330
A56
100
AcDbSymbolTableRecord
100
AcDbLayerTableRecord
  2
Shape030
 70
    0
 62
    7
  6
CONTINUOUS
  0
LAYER
  5
A76
330
A56
100
AcDbSymbolTableRecord
100
AcDbLayerTableRecord
  2
Shape031
 70
    0
 62
    7
  6
CONTINUOUS
  0
LAYER
  5
A77
330
A56
100
AcDbSymbolTableRecord
100
AcDbLayerTableRecord
  2
Shape032
 70
    0
 62
    7
  6
CONTINUOUS
  0
LAYER
  5
A78
330
A56
100
AcDbSymbolTableRecord
100
AcDbLayerTableRecord
  2
Shape033
 70
    0
 62
    7
  6
CONTINUOUS
  0
LAYER
  5
A79
330
A56
100
AcDbSymbolTableRecord
100
AcDbLayerTableRecord
  2
Shape034
 70
    0
 62
    7
  6
CONTINUOUS
  0
LAYER
  5
A7A
330
A56
100
AcDbSymbolTableRecord
100
AcDbLayerTableRecord
  2
Shape035
 70
    0
 62
    7
  6
CONTINUOUS
  0
LAYER
  5
A7B
330
A56
100
AcDbSymbolTableRecord
100
AcDbLayerTableRecord
  2
Shape036
 70
    0
 62
    7
  6
CONTINUOUS
  0
LAYER
  5
A7C
330
A56
100
AcDbSymbolTableRecord
100
AcDbLayerTableRecord
  2
Shape037
 70
    0
 62
    7
  6
CONTINUOUS
  0
LAYER
  5
A7D
330
A56
100
AcDbSymbolTableRecord
100
AcDbLayerTableRecord
  2
Shape038
 70
    0
 62
    7
  6
CONTINUOUS
  0
LAYER
  5
A7E
330
A56
100
AcDbSymbolTableRecord
100
AcDbLayerTableRecord
  2
Shape039
 70
    0
 62
    7
  6
CONTINUOUS
  0
LAYER
  5
A7F
330
A56
100
AcDbSymbolTableRecord
100
AcDbLayerTableRecord
  2
Shape040
 70
    0
 62
    7
  6
CONTINUOUS
  0
LAYER
  5
A80
330
A56
100
AcDbSymbolTableRecord
100
AcDbLayerTableRecord
  2
Shape041
 70
    0
 62
    7
  6
CONTINUOUS
  0
LAYER
  5
A81
330
A56
100
AcDbSymbolTableRecord
100
AcDbLayerTableRecord
  2
Shape042
 70
    0
 62
    7
  6
CONTINUOUS
  0
LAYER
  5
A82
330
A56
100
AcDbSymbolTableRecord
100
AcDbLayerTableRecord
  2
Shape043
 70
    0
 62
    7
  6
CONTINUOUS
  0
LAYER
  5
A83
330
A56
100
AcDbSymbolTableRecord
100
AcDbLayerTableRecord
  2
Shape044
 70
    0
 62
    7
  6
CONTINUOUS
  0
LAYER
  5
A84
330
A56
100
AcDbSymbolTableRecord
100
AcDbLayerTableRecord
  2
Shape045
 70
    0
 62
    7
  6
CONTINUOUS
  0
LAYER
  5
A85
330
A56
100
AcDbSymbolTableRecord
100
AcDbLayerTableRecord
  2
Shape046
 70
    0
 62
    7
  6
CONTINUOUS
  0
LAYER
  5
A86
330
A56
100
AcDbSymbolTableRecord
100
AcDbLayerTableRecord
  2
Shape047
 70
    0
 62
    7
  6
CONTINUOUS
  0
LAYER
  5
A87
330
A56
100
AcDbSymbolTableRecord
100
AcDbLayerTableRecord
  2
Shape048
 70
    0
 62
    7
  6
CONTINUOUS
  0
LAYER
  5
A88
330
A56
100
AcDbSymbolTableRecord
100
AcDbLayerTableRecord
  2
Shape049
 70
    0
 62
    7
  6
CONTINUOUS
  0
LAYER
  5
A89
330
A56
100
AcDbSymbolTableRecord
100
AcDbLayerTableRecord
  2
Shape050
 70
    0
 62
    7
  6
CONTINUOUS
  0
LAYER
  5
A8A
330
A56
100
AcDbSymbolTableRecord
100
AcDbLayerTableRecord
  2
Shape051
 70
    0
 62
    7
  6
CONTINUOUS
  0
LAYER
  5
A8B
330
A56
100
AcDbSymbolTableRecord
100
AcDbLayerTableRecord
  2
Shape052
 70
    0
 62
    7
  6
CONTINUOUS
  0
LAYER
  5
A8C
330
A56
100
AcDbSymbolTableRecord
100
AcDbLayerTableRecord
  2
Shape053
 70
    0
 62
    7
  6
CONTINUOUS
  0
LAYER
  5
A8D
330
A56
100
AcDbSymbolTableRecord
100
AcDbLayerTableRecord
  2
Shape054
 70
    0
 62
    7
  6
CONTINUOUS
  0
LAYER
  5
A8E
330
A56
100
AcDbSymbolTableRecord
100
AcDbLayerTableRecord
  2
Shape055
 70
    0
 62
    7
  6
CONTINUOUS
  0
LAYER
  5
A8F
330
A56
100
AcDbSymbolTableRecord
100
AcDbLayerTableRecord
  2
Shape056
 70
    0
 62
    7
  6
CONTINUOUS
  0
LAYER
  5
A90
330
A56
100
AcDbSymbolTableRecord
100
AcDbLayerTableRecord
  2
Shape057
 70
    0
 62
    7
  6
CONTINUOUS
  0
LAYER
  5
A91
330
A56
100
AcDbSymbolTableRecord
100
AcDbLayerTableRecord
  2
Shape058
 70
    0
 62
    7
  6
CONTINUOUS
  0
LAYER
  5
A92
330
A56
100
AcDbSymbolTableRecord
100
AcDbLayerTableRecord
  2
Shape059
 70
    0
 62
    7
  6
CONTINUOUS
  0
LAYER
  5
A93
330
A56
100
AcDbSymbolTableRecord
100
AcDbLayerTableRecord
  2
Shape060
 70
    0
 62
    7
  6
CONTINUOUS
  0
LAYER
  5
A94
330
A56
100
AcDbSymbolTableRecord
100
AcDbLayerTableRecord
  2
Shape061
 70
    0
 62
    7
  6
CONTINUOUS
  0
LAYER
  5
A95
330
A56
100
AcDbSymbolTableRecord
100
AcDbLayerTableRecord
  2
Shape062
 70
    0
 62
    7
  6
CONTINUOUS
  0
LAYER
  5
A96
330
A56
100
AcDbSymbolTableRecord
100
AcDbLayerTableRecord
  2
Shape063
 70
    0
 62
    7
  6
CONTINUOUS
  0
LAYER
  5
A97
330
A56
100
AcDbSymbolTableRecord
100
AcDbLayerTableRecord
  2
Shape064
 70
    0
 62
    7
  6
CONTINUOUS
  0
LAYER
  5
A98
330
A56
100
AcDbSymbolTableRecord
100
AcDbLayerTableRecord
  2
Shape065
 70
    0
 62
    7
  6
CONTINUOUS
  0
LAYER
  5
A99
330
A56
100
AcDbSymbolTableRecord
100
AcDbLayerTableRecord
  2
Shape066
 70
    0
 62
    7
  6
CONTINUOUS
  0
LAYER
  5
A9A
330
A56
100
AcDbSymbolTableRecord
100
AcDbLayerTableRecord
  2
Shape067
 70
    0
 62
    7
  6
CONTINUOUS
  0
LAYER
  5
A9B
330
A56
100
AcDbSymbolTableRecord
100
AcDbLayerTableRecord
  2
Shape068
 70
    0
 62
    7
  6
CONTINUOUS
  0
LAYER
  5
A9C
330
A56
100
AcDbSymbolTableRecord
100
AcDbLayerTableRecord
  2
Shape069
 70
    0
 62
    7
  6
CONTINUOUS
  0
LAYER
  5
A9D
330
A56
100
AcDbSymbolTableRecord
100
AcDbLayerTableRecord
  2
Shape070
 70
    0
 62
    7
  6
CONTINUOUS
  0
LAYER
  5
A9E
330
A56
100
AcDbSymbolTableRecord
100
AcDbLayerTableRecord
  2
Shape071
 70
    0
 62
    7
  6
CONTINUOUS
  0
LAYER
  5
A9F
330
A56
100
AcDbSymbolTableRecord
100
AcDbLayerTableRecord
  2
Shape072
 70
    0
 62
    7
  6
CONTINUOUS
  0
LAYER
  5
AA0
330
A56
100
AcDbSymbolTableRecord
100
AcDbLayerTableRecord
  2
Shape073
 70
    0
 62
    7
  6
CONTINUOUS
  0
LAYER
  5
AA1
330
A56
100
AcDbSymbolTableRecord
100
AcDbLayerTableRecord
  2
Shape074
 70
    0
 62
    7
  6
CONTINUOUS
  0
LAYER
  5
AA2
330
A56
100
AcDbSymbolTableRecord
100
AcDbLayerTableRecord
  2
Shape075
 70
    0
 62
    7
  6
CONTINUOUS
  0
LAYER
  5
AA3
330
A56
100
AcDbSymbolTableRecord
100
AcDbLayerTableRecord
  2
Shape076
 70
    0
 62
    7
  6
CONTINUOUS
  0
LAYER
  5
AA4
330
A56
100
AcDbSymbolTableRecord
100
AcDbLayerTableRecord
  2
Shape077
 70
    0
 62
    7
  6
CONTINUOUS
  0
LAYER
  5
AA5
330
A56
100
AcDbSymbolTableRecord
100
AcDbLayerTableRecord
  2
Shape078
 70
    0
 62
    7
  6
CONTINUOUS
  0
LAYER
  5
AA6
330
A56
100
AcDbSymbolTableRecord
100
AcDbLayerTableRecord
  2
Shape079
 70
    0
 62
    7
  6
CONTINUOUS
  0
ENDTAB
  0
TABLE
  2
STYLE
  5
70
330
0
100
AcDbSymbolTable
 70
     2
  0
STYLE
  5
71
330
70
100
AcDbSymbolTableRecord
100
AcDbTextStyleTableRecord
  2
STANDARD
 70
     0
 40
0.0
 41
1.0
 50
0.0
 71
     0
 42
2.5
  3
arial.ttf
  4

  0
STYLE
  5
72
330
70
100
AcDbSymbolTableRecord
100
AcDbTextStyleTableRecord
  2
ANNOTATIVE
 70
     0
 40
0.0
 41
1.0
 50
0.0
 71
     0
 42
2.5
  3
arial.ttf
  4

  0
ENDTAB
  0
TABLE
  2
VIEW
  5
73
330
0
100
AcDbSymbolTable
 70
     0
  0
ENDTAB
  0
TABLE
  2
UCS
  5
74
330
0
100
AcDbSymbolTable
 70
     0
  0
ENDTAB
  0
TABLE
  2
APPID
  5
75
330
0
100
AcDbSymbolTable
 70
     2
  0
APPID
  5
76
330
75
100
AcDbSymbolTableRecord
100
AcDbRegAppTableRecord
  2
ACAD
 70
     0
  0
APPID
  5
77
330
75
100
AcDbSymbolTableRecord
100
AcDbRegAppTableRecord
  2
ACADANNOTATIVE
 70
     0
  0
ENDTAB
  0
TABLE
  2
DIMSTYLE
  5
78
330
0
100
AcDbSymbolTable
 70
     2
  0
DIMSTYLE
105
79
330
78
100
AcDbSymbolTableRecord
100
AcDbDimStyleTableRecord
  2
STANDARD
 70
     0
  3

  4

  5

  6

  7

 40
0.0
 41
2.5
 42
0.625
 43
3.75
 44
1.25
 45
0.0
 46
0.0
 47
0.0
 48
0.0
140
2.5
141
2.5
142
0.0
143
0.03937007874016
144
1.0
145
0.0
146
1.0
147
0.625
 71
     0
 72
     0
 73
     0
 74
     0
 75
     0
 76
     0
 77
     1
 78
     8
170
     0
171
     3
172
     1
173
     0
174
     0
175
     0
176
     0
177
     0
178
     0
270
     2
271
     2
272
     2
273
     2
274
     3
340
71
275
     0
280
     0
281
     0
282
     0
283
     0
284
     8
285
     0
286
     0
287
     3
288
     0
  0
ENDTAB
  0
TABLE
  2
BLOCK_RECORD
  5
A01
330
0
100
AcDbSymbolTable
  70
5
  0
BLOCK_RECORD
  5
A02
330
A01
100
AcDbSymbolTableRecord
100
AcDbBlockTableRecord
  2
*MODEL_SPACE
  0
BLOCK_RECORD
  5
A03
330
A01
100
AcDbSymbolTableRecord
100
AcDbBlockTableRecord
  2
*PAPER_SPACE
  0
ENDTAB
  0
ENDSEC
  0
SECTION
  2
BLOCKS
  0
BLOCK
  5
A04
330
A02
100
AcDbEntity
  8
0
100
AcDbBlockBegin
  2
*MODEL_SPACE
 70
   0
 10
0
 20
0
 30
0
  3
*MODEL_SPACE
  1
 
  0
ENDBLK
  5
A05
330
A02
100
AcDbEntity
  8
0
100
AcDbBlockEnd
  0
BLOCK
  5
A06
330
A03
100
AcDbEntity
 67
1
  8
0
100
AcDbBlockBegin
  2
*PAPER_SPACE
 70
   0
 10
0
 20
0
 30
0
  3
*PAPER_SPACE
  1
 
  0
ENDBLK
  5
A07
330
A03
100
AcDbEntity
 67
    1
  8
0
100
AcDbBlockEnd
  0
ENDSEC
  0
SECTION
  2
ENTITIES
  0
LINE
  5
A08
330
A02
100
AcDbEntity
  8
Shape
100
AcDbLine
 10
21.1768
 20
1.15964
 30
0
 11
173.832
 21
1.15964
 31
0
  0
ARC
  5
A09
330
A02
100
AcDbEntity
  8
Shape001
100
AcDbCircle
 10
21.1768
 20
16.1596
 30
0
 40
15
100
AcDbArc
 50
-160
 51
-90
  0
LINE
  5
A0A
330
A02
100
AcDbEntity
  8
Shape002
100
AcDbLine
 10
326.487
 20
1.15964
 30
0
 11
173.832
 21
1.15964
 31
0
  0
LINE
  5
A0B
330
A02
100
AcDbEntity
  8
Shape004
100
AcDbLine
 10
7.08144
 20
11.0293
 30
0
 11
2.29316
 21
24.185
 31
0
  0
ARC
  5
A0C
330
A02
100
AcDbEntity
  8
Shape005
100
AcDbCircle
 10
173.832
 20
79.1708
 30
0
 40
40
100
AcDbArc
 50
90
 51
-90
  0
ARC
  5
A0D
330
A02
100
AcDbEntity
  8
Shape006
100
AcDbCircle
 10
16.3885
 20
29.3153
 30
0
 40
15
100
AcDbArc
 50
130
 51
-160
  0
LINE
  5
A0E
330
A02
100
AcDbEntity
  8
Shape008
100
AcDbLine
 10
81.8706
 20
103.842
 30
0
 11
6.74673
 21
40.806
 31
0
  0
LINE
  5
A0F
330
A02
100
AcDbEntity
  8
Shape009
100
AcDbLine
 10
173.832
 20
311.329
 30
0
 11
148.832
 21
311.329
 31
0
  0
ARC
  5
A10
330
A02
100
AcDbEntity
  8
Shape010
100
AcDbCircle
 10
69.0149
 20
119.163
 30
0
 40
20
100
AcDbArc
 50
-50
 51
-4.00165
  0
ARC
  5
A11
330
A02
100
AcDbEntity
  8
Shape011
100
AcDbCircle
 10
173.832
 20
79.1708
 30
0
 40
233.5
100
AcDbArc
 50
96.1462
 51
105.336
  0
LINE
  5
A12
330
A02
100
AcDbEntity
  8
Shape012
100
AcDbLine
 10
88.9661
 20
117.768
 30
0
 11
101.08
 21
290.937
 31
0
  0
ARC
  5
A13
330
A02
100
AcDbEntity
  8
Shape013
100
AcDbCircle
 10
116.044
 20
289.89
 30
0
 40
15
100
AcDbArc
 50
105.336
 51
175.998
  0
LINE
  5
A14
330
A02
100
AcDbEntity
  8
Shape014
100
AcDbLine
 10
127.927
 20
33.2658
 30
0
 11
127.927
 21
23.0658
 31
0
  0
LINE
  5
A15
330
A02
100
AcDbEntity
  8
Shape015
100
AcDbLine
 10
117.727
 20
33.2658
 30
0
 11
127.927
 21
33.2658
 31
0
  0
LINE
  5
A16
330
A02
100
AcDbEntity
  8
Shape016
100
AcDbLine
 10
127.927
 20
23.0658
 30
0
 11
117.727
 21
23.0658
 31
0
  0
LINE
  5
A17
330
A02
100
AcDbEntity
  8
Shape017
100
AcDbLine
 10
117.727
 20
23.0658
 30
0
 11
117.727
 21
33.2658
 31
0
  0
LINE
  5
A18
330
A02
100
AcDbEntity
  8
Shape018
100
AcDbLine
 10
127.927
 20
135.276
 30
0
 11
127.927
 21
125.076
 31
0
  0
LINE
  5
A19
330
A02
100
AcDbEntity
  8
Shape019
100
AcDbLine
 10
117.727
 20
135.276
 30
0
 11
127.927
 21
135.276
 31
0
  0
LINE
  5
A1A
330
A02
100
AcDbEntity
  8
Shape020
100
AcDbLine
 10
127.927
 20
125.076
 30
0
 11
117.727
 21
125.076
 31
0
  0
LINE
  5
A1B
330
A02
100
AcDbEntity
  8
Shape021
100
AcDbLine
 10
117.727
 20
125.076
 30
0
 11
117.727
 21
135.276
 31
0
  0
CIRCLE
  5
A1C
330
A02
100
AcDbEntity
  8
Shape022
100
AcDbCircle
 10
35.1029
 20
15.9074
 40
2.25
  0
ARC
  5
A1D
330
A02
100
AcDbEntity
  8
Shape023
100
AcDbCircle
 10
16.4732
 20
32.0066
 30
0
 40
6
100
AcDbArc
 50
20
 51
-160
  0
LINE
  5
A1E
330
A02
100
AcDbEntity
  8
Shape024
100
AcDbLine
 10
17.3334
 20
12.1003
 30
0
 11
10.835
 21
29.9545
 31
0
  0
LINE
  5
A1F
330
A02
100
AcDbEntity
  8
Shape025
100
AcDbLine
 10
22.1113
 20
34.0587
 30
0
 11
28.6097
 21
16.2045
 31
0
  0
ARC
  5
A20
330
A02
100
AcDbEntity
  8
Shape026
100
AcDbCircle
 10
22.9716
 20
14.1524
 30
0
 40
6
100
AcDbArc
 50
-160
 51
20
  0
CIRCLE
  5
A21
330
A02
100
AcDbEntity
  8
Shape027
100
AcDbCircle
 10
26.8945
 20
38.4601
 40
2.25
  0
ARC
  5
A22
330
A02
100
AcDbEntity
  8
Shape028
100
AcDbCircle
 10
158.832
 20
276.921
 30
0
 40
2.1
100
AcDbArc
 50
0
 51
180
  0
LINE
  5
A23
330
A02
100
AcDbEntity
  8
Shape029
100
AcDbLine
 10
160.932
 20
276.921
 30
0
 11
160.932
 21
264.921
 31
0
  0
ARC
  5
A24
330
A02
100
AcDbEntity
  8
Shape030
100
AcDbCircle
 10
158.832
 20
264.921
 30
0
 40
2.1
100
AcDbArc
 50
180
 51
0
  0
LINE
  5
A25
330
A02
100
AcDbEntity
  8
Shape031
100
AcDbLine
 10
156.732
 20
264.921
 30
0
 11
156.732
 21
276.921
 31
0
  0
ARC
  5
A26
330
A02
100
AcDbEntity
  8
Shape032
100
AcDbCircle
 10
158.832
 20
306.921
 30
0
 40
2.1
100
AcDbArc
 50
0
 51
180
  0
LINE
  5
A27
330
A02
100
AcDbEntity
  8
Shape033
100
AcDbLine
 10
160.932
 20
306.921
 30
0
 11
160.932
 21
294.921
 31
0
  0
ARC
  5
A28
330
A02
100
AcDbEntity
  8
Shape034
100
AcDbCircle
 10
158.832
 20
294.921
 30
0
 40
2.1
100
AcDbArc
 50
180
 51
0
  0
LINE
  5
A29
330
A02
100
AcDbEntity
  8
Shape035
100
AcDbLine
 10
156.732
 20
294.921
 30
0
 11
156.732
 21
306.921
 31
0
  0
CIRCLE
  5
A2A
330
A02
100
AcDbEntity
  8
Shape036
100
AcDbCircle
 10
137.411
 20
282.28
 40
2.25
  0
CIRCLE
  5
A2B
330
A02
100
AcDbEntity
  8
Shape037
100
AcDbCircle
 10
114.074
 20
276.678
 40
2.25
  0
ARC
  5
A2C
330
A02
100
AcDbEntity
  8
Shape038
100
AcDbCircle
 10
132.178
 20
293.365
 30
0
 40
6
100
AcDbArc
 50
-76.5
 51
103.5
  0
LINE
  5
A2D
330
A02
100
AcDbEntity
  8
Shape039
100
AcDbLine
 10
112.303
 20
294.764
 30
0
 11
130.778
 21
299.199
 31
0
  0
LINE
  5
A2E
330
A02
100
AcDbEntity
  8
Shape040
100
AcDbLine
 10
133.579
 20
287.531
 30
0
 11
115.104
 21
283.096
 31
0
  0
ARC
  5
A2F
330
A02
100
AcDbEntity
  8
Shape041
100
AcDbCircle
 10
113.703
 20
288.93
 30
0
 40
6
100
AcDbArc
 50
103.5
 51
-76.5
  0
ARC
  5
A30
330
A02
100
AcDbEntity
  8
Shape042
100
AcDbCircle
 10
326.487
 20
16.1596
 30
0
 40
15
100
AcDbArc
 50
-90
 51
-20
  0
LINE
  5
A31
330
A02
100
AcDbEntity
  8
Shape043
100
AcDbLine
 10
340.583
 20
11.0293
 30
0
 11
345.371
 21
24.185
 31
0
  0
ARC
  5
A32
330
A02
100
AcDbEntity
  8
Shape044
100
AcDbCircle
 10
173.832
 20
79.1708
 30
0
 40
40
100
AcDbArc
 50
-90
 51
90
  0
ARC
  5
A33
330
A02
100
AcDbEntity
  8
Shape045
100
AcDbCircle
 10
331.275
 20
29.3153
 30
0
 40
15
100
AcDbArc
 50
-20
 51
50
  0
LINE
  5
A34
330
A02
100
AcDbEntity
  8
Shape046
100
AcDbLine
 10
265.793
 20
103.842
 30
0
 11
340.917
 21
40.806
 31
0
  0
LINE
  5
A35
330
A02
100
AcDbEntity
  8
Shape047
100
AcDbLine
 10
173.832
 20
311.329
 30
0
 11
198.832
 21
311.329
 31
0
  0
ARC
  5
A36
330
A02
100
AcDbEntity
  8
Shape048
100
AcDbCircle
 10
278.649
 20
119.163
 30
0
 40
20
100
AcDbArc
 50
-175.998
 51
-130
  0
ARC
  5
A37
330
A02
100
AcDbEntity
  8
Shape049
100
AcDbCircle
 10
173.832
 20
79.1708
 30
0
 40
233.5
100
AcDbArc
 50
74.6641
 51
83.8538
  0
LINE
  5
A38
330
A02
100
AcDbEntity
  8
Shape050
100
AcDbLine
 10
258.698
 20
117.768
 30
0
 11
246.584
 21
290.937
 31
0
  0
ARC
  5
A39
330
A02
100
AcDbEntity
  8
Shape051
100
AcDbCircle
 10
231.62
 20
289.89
 30
0
 40
15
100
AcDbArc
 50
4.00165
 51
74.6641
  0
LINE
  5
A3A
330
A02
100
AcDbEntity
  8
Shape052
100
AcDbLine
 10
229.937
 20
23.0658
 30
0
 11
229.937
 21
33.2658
 31
0
  0
LINE
  5
A3B
330
A02
100
AcDbEntity
  8
Shape053
100
AcDbLine
 10
219.737
 20
23.0658
 30
0
 11
229.937
 21
23.0658
 31
0
  0
LINE
  5
A3C
330
A02
100
AcDbEntity
  8
Shape054
100
AcDbLine
 10
229.937
 20
33.2658
 30
0
 11
219.737
 21
33.2658
 31
0
  0
LINE
  5
A3D
330
A02
100
AcDbEntity
  8
Shape055
100
AcDbLine
 10
219.737
 20
33.2658
 30
0
 11
219.737
 21
23.0658
 31
0
  0
LINE
  5
A3E
330
A02
100
AcDbEntity
  8
Shape056
100
AcDbLine
 10
229.937
 20
125.076
 30
0
 11
229.937
 21
135.276
 31
0
  0
LINE
  5
A3F
330
A02
100
AcDbEntity
  8
Shape057
100
AcDbLine
 10
219.737
 20
125.076
 30
0
 11
229.937
 21
125.076
 31
0
  0
LINE
  5
A40
330
A02
100
AcDbEntity
  8
Shape058
100
AcDbLine
 10
229.937
 20
135.276
 30
0
 11
219.737
 21
135.276
 31
0
  0
LINE
  5
A41
330
A02
100
AcDbEntity
  8
Shape059
100
AcDbLine
 10
219.737
 20
135.276
 30
0
 11
219.737
 21
125.076
 31
0
  0
CIRCLE
  5
A42
330
A02
100
AcDbEntity
  8
Shape060
100
AcDbCircle
 10
312.561
 20
15.9074
 40
2.25
  0
LINE
  5
A43
330
A02
100
AcDbEntity
  8
Shape061
100
AcDbLine
 10
336.829
 20
29.9545
 30
0
 11
330.331
 21
12.1003
 31
0
  0
ARC
  5
A44
330
A02
100
AcDbEntity
  8
Shape062
100
AcDbCircle
 10
331.191
 20
32.0066
 30
0
 40
6
100
AcDbArc
 50
-20
 51
160
  0
ARC
  5
A45
330
A02
100
AcDbEntity
  8
Shape063
100
AcDbCircle
 10
324.692
 20
14.1524
 30
0
 40
6
100
AcDbArc
 50
160
 51
-20
  0
LINE
  5
A46
330
A02
100
AcDbEntity
  8
Shape064
100
AcDbLine
 10
319.054
 20
16.2045
 30
0
 11
325.553
 21
34.0587
 31
0
  0
CIRCLE
  5
A47
330
A02
100
AcDbEntity
  8
Shape065
100
AcDbCircle
 10
320.769
 20
38.4601
 40
2.25
  0
LINE
  5
A48
330
A02
100
AcDbEntity
  8
Shape066
100
AcDbLine
 10
186.732
 20
264.921
 30
0
 11
186.732
 21
276.921
 31
0
  0
ARC
  5
A49
330
A02
100
AcDbEntity
  8
Shape067
100
AcDbCircle
 10
188.832
 20
264.921
 30
0
 40
2.1
100
AcDbArc
 50
180
 51
0
  0
LINE
  5
A4A
330
A02
100
AcDbEntity
  8
Shape068
100
AcDbLine
 10
190.932
 20
276.921
 30
0
 11
190.932
 21
264.921
 31
0
  0
ARC
  5
A4B
330
A02
100
AcDbEntity
  8
Shape069
100
AcDbCircle
 10
188.832
 20
276.921
 30
0
 40
2.1
100
AcDbArc
 50
0
 51
180
  0
LINE
  5
A4C
330
A02
100
AcDbEntity
  8
Shape070
100
AcDbLine
 10
186.732
 20
294.921
 30
0
 11
186.732
 21
306.921
 31
0
  0
ARC
  5
A4D
330
A02
100
AcDbEntity
  8
Shape071
100
AcDbCircle
 10
188.832
 20
294.921
 30
0
 40
2.1
100
AcDbArc
 50
180
 51
0
  0
LINE
  5
A4E
330
A02
100
AcDbEntity
  8
Shape072
100
AcDbLine
 10
190.932
 20
306.921
 30
0
 11
190.932
 21
294.921
 31
0
  0
ARC
  5
A4F
330
A02
100
AcDbEntity
  8
Shape073
100
AcDbCircle
 10
188.832
 20
306.921
 30
0
 40
2.1
100
AcDbArc
 50
0
 51
180
  0
CIRCLE
  5
A50
330
A02
100
AcDbEntity
  8
Shape074
100
AcDbCircle
 10
210.253
 20
282.28
 40
2.25
  0
CIRCLE
  5
A51
330
A02
100
AcDbEntity
  8
Shape075
100
AcDbCircle
 10
233.59
 20
276.678
 40
2.25
  0
LINE
  5
A52
330
A02
100
AcDbEntity
  8
Shape076
100
AcDbLine
 10
232.56
 20
283.096
 30
0
 11
214.085
 21
287.531
 31
0
  0
ARC
  5
A53
330
A02
100
AcDbEntity
  8
Shape077
100
AcDbCircle
 10
233.961
 20
288.93
 30
0
 40
6
100
AcDbArc
 50
-103.5
 51
76.5
  0
ARC
  5
A54
330
A02
100
AcDbEntity
  8
Shape078
100
AcDbCircle
 10
215.486
 20
293.365
 30
0
 40
6
100
AcDbArc
 50
76.5
 51
-103.5
  0
LINE
  5
A55
330
A02
100
AcDbEntity
  8
Shape079
100
AcDbLine
 10
216.886
 20
299.199
 30
0
 11
235.361
 21
294.764
 31
0
  0
ENDSEC
  0
SECTION
  2
OBJECTS
  0
DICTIONARY
  5
F000
330
0
100
AcDbDictionary
  3
ACAD_GROUP
350
F001
  0
DICTIONARY
  5
F001
330
F000
100
AcDbDictionary
  0
ENDSEC
  0
EOF